<svg xmlns="http://www.w3.org/2000/svg" width="14.128" height="17.553" viewBox="0 0 14.128 17.553">
  <g id="Group_25" data-name="Group 25" transform="translate(-1551.431 -22.754)">
    <g id="Group_3" data-name="Group 3" transform="translate(1551.707 23.03)">
      <path id="Path_2" data-name="Path 2" d="M1565.282,39.449a.582.582,0,0,1-1.164,0,5.624,5.624,0,0,0-11.248,0,.582.582,0,0,1-1.163,0,6.787,6.787,0,0,1,13.575,0Zm-6.787-8.281a4.069,4.069,0,1,1,4.073-4.069A4.071,4.071,0,0,1,1558.494,31.168Zm0-1.163a2.906,2.906,0,1,0-2.909-2.907A2.908,2.908,0,0,0,1558.494,30Z" transform="translate(-1551.707 -23.03)" fill="#585858" stroke="#585858" stroke-miterlimit="10" stroke-width="0.553"/>
    </g>
  </g>
</svg>
