<svg xmlns="http://www.w3.org/2000/svg" width="38.713" height="36.966" viewBox="0 0 38.713 36.966"><defs><style>.a,.b{fill:#fff;}.a{opacity:0.2;}</style></defs><g transform="translate(143.801 18.586)"><circle class="a" cx="17.894" cy="17.894" r="17.894" transform="translate(-140.877 -18.002)"/><g transform="translate(-6.072 -5.798)"><g transform="translate(-117.158 -12.788)"><path class="b" d="M-108.976-2.262l3.3-5.286a1.582,1.582,0,0,0,.045-1.491,1.484,1.484,0,0,0-1.265-.768H-120.72v-1.536a1.427,1.427,0,0,0-1.445-1.445,1.427,1.427,0,0,0-1.445,1.445V22.717a1.427,1.427,0,0,0,1.445,1.445,1.427,1.427,0,0,0,1.445-1.445V5.281h13.777a1.4,1.4,0,0,0,1.265-.768,1.47,1.47,0,0,0-.045-1.491ZM-120.72,2.39V-6.871h11.157l-2.394,3.841a1.552,1.552,0,0,0,0,1.536l2.394,3.839H-120.72Z" transform="translate(123.611 12.788)"/></g><path class="b" d="M-133.356-1.988V.932h-2.92a1.428,1.428,0,0,0-1.008.42,1.466,1.466,0,0,0-.025,2.079l4.374,4.374a1.457,1.457,0,0,0,1.033.42h3.785l11.236,11.247v.012a1.46,1.46,0,0,0,2.066-.012h.012a1.46,1.46,0,0,0-.012-2.066L-126.062,6.17V2.385a1.464,1.464,0,0,0-.433-1.033l-4.373-4.374a1.452,1.452,0,0,0-1.01-.42A1.472,1.472,0,0,0-133.356-1.988Zm4.374,4.974V5.3H-131.3l-1.454-1.454h.852a1.461,1.461,0,0,0,1.454-1.466V1.533Z" transform="translate(0 4.272)"/></g></g></svg>