<svg xmlns="http://www.w3.org/2000/svg" width="43.694" height="37.637" viewBox="0 0 43.694 37.637"><defs><style>.a,.b{fill:#fff;}.a{opacity:0.2;}</style></defs><g transform="translate(242.523 18.002)"><ellipse class="a" cx="17.894" cy="18.818" rx="17.894" ry="18.818" transform="translate(-234.618 -18.002)"/><g transform="translate(-242.523 -0.966)"><path class="b" d="M-220.134,1.371l-7.011.009-2.6-2.6a1.442,1.442,0,0,0-1-.424h-6.022a1.417,1.417,0,0,0-1.3.884,1.422,1.422,0,0,0,.3,1.548l2.008,2.008-2.005,2a1.425,1.425,0,0,0-.3,1.549,1.421,1.421,0,0,0,1.3.884h6.022a1.411,1.411,0,0,0,1-.424l2.6-2.6,7.01.01h.009A1.418,1.418,0,0,0-218.711,2.8V2.787a1.419,1.419,0,0,0-1.421-1.416Zm-11.2,3.02h-2.009l.594-.589a1.422,1.422,0,0,0,0-2.007l-.594-.594h2.008l1.6,1.6Z" transform="translate(238.183 1.641)"/></g><g transform="translate(-233.314 -17.71)"><path class="b" d="M-197.577-7.585l-15.434-6.494a1.231,1.231,0,0,0-.466-.079,1.244,1.244,0,0,0-.4.078l-15.434,6.495a1.25,1.25,0,0,0-.725,1.14V.732h0a1.336,1.336,0,0,0,1.954-.1,1.5,1.5,0,0,0,.361-.981v-4.3L-214.6.873V20.166l-13.118-5.528V13.625a1.422,1.422,0,0,0-1.385-1.456,1.347,1.347,0,0,0-.93.379h0v2.928a1.218,1.218,0,0,0,.725,1.127l15.434,6.495a1.106,1.106,0,0,0,.864,0l15.434-6.495a1.217,1.217,0,0,0,.724-1.127V-6.445A1.251,1.251,0,0,0-197.577-7.585Zm-15.866,6.316-12.3-5.176,12.3-5.187,12.3,5.187Zm14.276,15.907-13.118,5.529V.875l13.118-5.516Z" transform="translate(230.033 14.158)"/></g></g></svg>