<svg xmlns="http://www.w3.org/2000/svg" width="35.788" height="35.788" viewBox="0 0 35.788 35.788"><defs><style>.a,.b{fill:#fff;}.a{opacity:0.2;}</style></defs><g transform="translate(188.56 18.002)"><circle class="a" cx="17.894" cy="17.894" r="17.894" transform="translate(-188.56 -18.002)"/><g transform="translate(-5.13 -5.12)"><path class="b" d="M-152.978-2.563a1.331,1.331,0,0,0,1.882-.073,1.335,1.335,0,0,0,.263-.415l2.507-7.524a1.254,1.254,0,0,0-.782-1.591,1.265,1.265,0,0,0-.808,0l-7.525,2.509a1.266,1.266,0,0,0-.782,1.612,1.28,1.28,0,0,0,.292.472l1.567,1.617-3.058,3.045a17.442,17.442,0,0,0-11.473-4.3h-4.716l-1.4-1.4a3.859,3.859,0,0,0-5.316,0,3.76,3.76,0,0,0,0,5.316l1.917,1.919,1.92,13.792-4.577,4.565a1.262,1.262,0,0,0,.024,1.785,1.265,1.265,0,0,0,.867.359h2.507v2.507a1.261,1.261,0,0,0,1.273,1.249,1.263,1.263,0,0,0,.871-.359l4.577-4.577,13.791,1.919,1.919,1.917a3.76,3.76,0,0,0,5.316,0,3.861,3.861,0,0,0,0-5.317l-1.416-1.4V10.34a17.451,17.451,0,0,0-4.3-11.473l3.047-3.059ZM-151.56-9l-1.079,3.223-2.145-2.145Zm-22.355,20.589h-2.159L-177.653.309a3.135,3.135,0,0,0,.488,0h6.27a9.932,9.932,0,0,1,6.143,2.119Zm-6.647-16.664a1.262,1.262,0,0,1,0-1.783,1.26,1.26,0,0,1,1.782,0l1.763,1.78a1.253,1.253,0,0,0,.891.363h5.229a14.912,14.912,0,0,1,9.7,3.575l-1.78,1.768A12.466,12.466,0,0,0-170.894-2.2h-6.27a1.32,1.32,0,0,1-.891-.363Zm5.906,21.165-2.507,2.5v-.74a1.254,1.254,0,0,0-1.254-1.254h-.74l2.507-2.507h1.994Zm2.507-.577V13.361l9.166-9.166a9.924,9.924,0,0,1,2.119,6.144v6.269a3.156,3.156,0,0,0,0,.49Zm16.3-5.179v5.228a1.252,1.252,0,0,0,.364.891l1.78,1.768a1.259,1.259,0,0,1-.02,1.78,1.256,1.256,0,0,1-1.761,0l-2.509-2.507a1.315,1.315,0,0,1-.363-.891V10.338a12.462,12.462,0,0,0-2.834-7.925l1.769-1.78a14.914,14.914,0,0,1,3.572,9.706Z" transform="translate(0)"/></g></g></svg>