<svg xmlns="http://www.w3.org/2000/svg" width="18.75" height="18.75" viewBox="0 0 18.75 18.75"><defs><style>.a{fill:#585858;}</style></defs><path class="a" d="M13.454,5.768c2.5,0,2.8.01,3.788.055a5.189,5.189,0,0,1,1.741.323,3.1,3.1,0,0,1,1.779,1.779,5.189,5.189,0,0,1,.323,1.741c.045.989.055,1.285.055,3.788s-.01,2.8-.055,3.788a5.189,5.189,0,0,1-.323,1.741,3.1,3.1,0,0,1-1.779,1.779,5.189,5.189,0,0,1-1.741.323c-.988.045-1.285.055-3.788.055s-2.8-.01-3.788-.055a5.189,5.189,0,0,1-1.741-.323,3.1,3.1,0,0,1-1.779-1.779,5.189,5.189,0,0,1-.323-1.741c-.045-.989-.055-1.285-.055-3.788s.01-2.8.055-3.788a5.189,5.189,0,0,1,.323-1.741A3.1,3.1,0,0,1,7.925,6.146a5.189,5.189,0,0,1,1.741-.323c.989-.045,1.285-.055,3.788-.055m0-1.689c-2.546,0-2.865.011-3.865.056a6.881,6.881,0,0,0-2.276.436A4.794,4.794,0,0,0,4.571,7.313a6.881,6.881,0,0,0-.436,2.276c-.046,1-.056,1.319-.056,3.865s.011,2.865.056,3.865a6.881,6.881,0,0,0,.436,2.276,4.794,4.794,0,0,0,2.742,2.742,6.881,6.881,0,0,0,2.276.436c1,.046,1.319.056,3.865.056s2.865-.011,3.865-.056a6.881,6.881,0,0,0,2.276-.436,4.794,4.794,0,0,0,2.742-2.742,6.881,6.881,0,0,0,.436-2.276c.046-1,.056-1.319.056-3.865s-.011-2.865-.056-3.865a6.881,6.881,0,0,0-.436-2.276,4.794,4.794,0,0,0-2.742-2.742,6.881,6.881,0,0,0-2.276-.436c-1-.046-1.319-.056-3.865-.056Z" transform="translate(-4.079 -4.079)"/><path class="a" d="M131.449,126.635a4.814,4.814,0,1,0,4.814,4.814A4.814,4.814,0,0,0,131.449,126.635Zm0,7.939a3.125,3.125,0,1,1,3.125-3.125A3.125,3.125,0,0,1,131.449,134.574Z" transform="translate(-122.074 -122.074)"/><circle class="a" cx="1.125" cy="1.125" r="1.125" transform="translate(13.254 3.246)"/></svg>