<svg xmlns="http://www.w3.org/2000/svg" width="16" height="16" viewBox="0 0 16 16">
  <g id="Group_26" data-name="Group 26" transform="translate(-1631.036 -22.753)">
    <g id="Group_1" data-name="Group 1" transform="translate(1631.036 22.753)">
      <path id="Path_1" data-name="Path 1" d="M1646.789,37.315a.842.842,0,0,1-1.191,1.191l-4.119-4.119a.526.526,0,0,0-.64-.06,3.407,3.407,0,0,1-.358.228,6.31,6.31,0,1,1,2.348-2.339,3.166,3.166,0,0,1-.214.335.524.524,0,0,0,.056.644Zm-9.437-3.615a4.631,4.631,0,1,0-4.632-4.632A4.632,4.632,0,0,0,1637.352,33.7Z" transform="translate(-1631.036 -22.753)" fill="#ffffff"/>
    </g>
  </g>
</svg>
