<svg xmlns="http://www.w3.org/2000/svg" width="36.708" height="36.708" viewBox="0 0 36.708 36.708"><defs><style>.a,.b{fill:#fff;}.a{opacity:0.2;}</style></defs><g transform="translate(283.679 20.428)"><circle class="a" cx="17.189" cy="17.189" r="17.189" transform="translate(-283.679 -18.098)"/><g transform="translate(-283.679 -20.428)"><path class="b" d="M-268.46,1.342a3.936,3.936,0,0,0,3.8,4.065,3.936,3.936,0,0,0,4.065-3.8,1.313,1.313,0,0,1,1.4-1.218,1.313,1.313,0,0,1,1.222,1.307.689.689,0,0,1,0,.094,6.556,6.556,0,0,1-7,6.077,6.557,6.557,0,0,1-6.077-7,6.556,6.556,0,0,1,6.077-6.077,1.313,1.313,0,0,1,1.4,1.22,1.314,1.314,0,0,1-1.219,1.4A3.932,3.932,0,0,0-268.46,1.342Zm9.177-9.177a1.312,1.312,0,0,0-.681-1.718A11.8,11.8,0,0,0-275.435-3.3a11.8,11.8,0,0,0,6.253,15.471,11.8,11.8,0,0,0,15.471-6.253,11.8,11.8,0,0,0,0-9.218,1.313,1.313,0,0,0-1.741-.642,1.314,1.314,0,0,0-.67,1.678A9.177,9.177,0,0,1-261,9.763a9.177,9.177,0,0,1-12.027-4.877A9.177,9.177,0,0,1-268.15-7.141a9.181,9.181,0,0,1,7.151,0,1.31,1.31,0,0,0,1.717-.7Zm14.042-4.319-3.933,3.933a1.31,1.31,0,0,1-.931.38h-3.4L-263.6,2.268a1.311,1.311,0,0,1-1.854.008h0l-.008-.008a1.311,1.311,0,0,1-.008-1.854h0l.008-.008,10.108-10.094V-13.08a1.31,1.31,0,0,1,.38-.931l3.933-3.933a1.32,1.32,0,0,1,1.866.019,1.321,1.321,0,0,1,.377.911v2.622h2.622a1.319,1.319,0,0,1,1.307,1.331,1.32,1.32,0,0,1-.377.911Zm-4.091.38h-.773a1.312,1.312,0,0,1-1.312-1.306v-.773l-1.311,1.311v2.085h2.085ZM-250.8-6.407a1.311,1.311,0,0,0-.616,1.744,14.115,14.115,0,0,1,1.311,6.005,14.422,14.422,0,0,1-14.422,14.422A14.422,14.422,0,0,1-278.951,1.342,14.423,14.423,0,0,1-264.529-13.08h0a14.115,14.115,0,0,1,6.005,1.311,1.314,1.314,0,0,0,1.744-.642,1.314,1.314,0,0,0-.642-1.744,16.788,16.788,0,0,0-7.106-1.547A17.045,17.045,0,0,0-281.572,1.341a17.044,17.044,0,0,0,17.043,17.046A17.044,17.044,0,0,0-247.483,1.343h0a16.766,16.766,0,0,0-1.573-7.106,1.312,1.312,0,0,0-1.738-.648Z" transform="translate(281.572 18.321)"/></g></g></svg>