<svg xmlns="http://www.w3.org/2000/svg" width="19.113" height="22" viewBox="0 0 19.113 22">
  <path id="Icon_simple-tiktok" data-name="Icon simple-tiktok" d="M12.407.018C13.608,0,14.8.009,15.991,0a5.71,5.71,0,0,0,1.6,3.822,6.464,6.464,0,0,0,3.887,1.641V9.157a9.812,9.812,0,0,1-3.85-.889,11.326,11.326,0,0,1-1.485-.852c-.009,2.677.009,5.353-.018,8.021a7,7,0,0,1-1.237,3.612,6.829,6.829,0,0,1-5.417,2.942,6.684,6.684,0,0,1-3.74-.944,6.912,6.912,0,0,1-3.346-5.234c-.018-.458-.027-.917-.009-1.366a6.9,6.9,0,0,1,8-6.123c.018,1.357-.037,2.713-.037,4.07a3.145,3.145,0,0,0-4.015,1.943A3.636,3.636,0,0,0,6.2,15.812a3.12,3.12,0,0,0,3.208,2.631,3.08,3.08,0,0,0,2.539-1.476A2.115,2.115,0,0,0,12.324,16c.092-1.641.055-3.272.064-4.913C12.4,7.388,12.379,3.7,12.407.018Z" transform="translate(-2.369)" fill="#585858"/>
</svg>
