<svg xmlns="http://www.w3.org/2000/svg" width="20" height="14" viewBox="0 0 20 14"><defs><style>.a{fill:#585858;}</style></defs><path class="a" d="M-81.111,233.378a2.5,2.5,0,0,0-1.768-1.768c-1.56-.418-7.814-.418-7.814-.418s-6.254,0-7.814.418a2.505,2.505,0,0,0-1.768,1.768,26.036,26.036,0,0,0-.418,4.814,26.031,26.031,0,0,0,.418,4.814,2.5,2.5,0,0,0,1.768,1.768c1.56.418,7.814.418,7.814.418s6.254,0,7.814-.418a2.5,2.5,0,0,0,1.768-1.768,26.031,26.031,0,0,0,.418-4.814A26.036,26.036,0,0,0-81.111,233.378Zm-11.582,7.814v-6l5.2,3Z" transform="translate(100.693 -231.192)"/></svg>