<?xml version="1.0" encoding="UTF-8" standalone="no"?>
<svg id="svg2" xmlns:rdf="http://www.w3.org/1999/02/22-rdf-syntax-ns#" xmlns="http://www.w3.org/2000/svg" viewBox="0 0 900 600" version="1.1" xmlns:cc="http://creativecommons.org/ns#" xmlns:dc="http://purl.org/dc/elements/1.1/">
<metadata id="metadata40">
<rdf:RDF>
<cc:Work rdf:about="">
<dc:format>image/svg+xml</dc:format>
<dc:type rdf:resource="http://purl.org/dc/dcmitype/StillImage"/>
</cc:Work>
</rdf:RDF>
</metadata>
<rect id="rect4" height="485.59" width="900" y="0" x="0" fill="#f93"/>
<rect id="rect8" height="264.83" width="900" y="335.17" x="0" fill="#128807"/>
<rect id="rect6" height="200" width="900" y="200" x="0" fill="#fff"/>
<circle id="circle12" d="M 20,0 C 20,11.045695 11.045695,20 0,20 C -11.045695,20 -20,11.045695 -20,0 C -20,-11.045695 -11.045695,-20 0,-20 C 11.045695,-20 20,-11.045695 20,0 z" transform="matrix(4,0,0,4,450,300)" cy="0" cx="0" r="20" fill="#008"/>
<circle id="circle14" d="M 17.5,0 C 17.5,9.6649831 9.6649831,17.5 0,17.5 C -9.6649831,17.5 -17.5,9.6649831 -17.5,0 C -17.5,-9.6649831 -9.6649831,-17.5 0,-17.5 C 9.6649831,-17.5 17.5,-9.6649831 17.5,0 z" transform="matrix(4,0,0,4,450,300)" cy="0" cx="0" r="17.5" fill="#fff"/>
<circle id="circle16" d="M 3.5,0 C 3.5,1.9329966 1.9329966,3.5 0,3.5 C -1.9329966,3.5 -3.5,1.9329966 -3.5,0 C -3.5,-1.9329966 -1.9329966,-3.5 0,-3.5 C 1.9329966,-3.5 3.5,-1.9329966 3.5,0 z" transform="matrix(4,0,0,4,450,300)" cy="0" cx="0" r="3.5" fill="#008"/>
<g id="d" fill="#008" transform="matrix(4,0,0,4,450,300)">
<g id="c">
<g id="b">
<g id="a">
<circle id="circle22" transform="matrix(.99144 .13053 -.13053 .99144 17.35 2.2842)" cy="0" cx="0" r=".875"/>
<path id="path24" d="m0 17.5l0.6-10.5-0.6-5-0.6 5 0.6 10.5z"/>
</g>
<g id="use26" transform="rotate(15)">
<circle id="circle3002" transform="matrix(.99144 .13053 -.13053 .99144 17.35 2.2842)" cy="0" cx="0" r=".875"/>
<path id="path3004" d="m0 17.5l0.6-10.5-0.6-5-0.6 5 0.6 10.5z"/>
</g>
</g>
<g id="use28" transform="rotate(30)">
<g id="g3008">
<circle id="circle3010" transform="matrix(.99144 .13053 -.13053 .99144 17.35 2.2842)" cy="0" cx="0" r=".875"/>
<path id="path3012" d="m0 17.5l0.6-10.5-0.6-5-0.6 5 0.6 10.5z"/>
</g>
<g id="g3014" transform="rotate(15)">
<circle id="circle3016" transform="matrix(.99144 .13053 -.13053 .99144 17.35 2.2842)" cy="0" cx="0" r=".875"/>
<path id="path3018" d="m0 17.5l0.6-10.5-0.6-5-0.6 5 0.6 10.5z"/>
</g>
</g>
</g>
<g id="use30" transform="rotate(60.001)">
<g id="g3022">
<g id="g3024">
<circle id="circle3026" transform="matrix(.99144 .13053 -.13053 .99144 17.35 2.2842)" cy="0" cx="0" r=".875"/>
<path id="path3028" d="m0 17.5l0.6-10.5-0.6-5-0.6 5 0.6 10.5z"/>
</g>
<g id="g3030" transform="rotate(15)">
<circle id="circle3032" transform="matrix(.99144 .13053 -.13053 .99144 17.35 2.2842)" cy="0" cx="0" r=".875"/>
<path id="path3034" d="m0 17.5l0.6-10.5-0.6-5-0.6 5 0.6 10.5z"/>
</g>
</g>
<g id="g3036" transform="rotate(30)">
<g id="g3038">
<circle id="circle3040" transform="matrix(.99144 .13053 -.13053 .99144 17.35 2.2842)" cy="0" cx="0" r=".875"/>
<path id="path3042" d="m0 17.5l0.6-10.5-0.6-5-0.6 5 0.6 10.5z"/>
</g>
<g id="g3044" transform="rotate(15)">
<circle id="circle3046" transform="matrix(.99144 .13053 -.13053 .99144 17.35 2.2842)" cy="0" cx="0" r=".875"/>
<path id="path3048" d="m0 17.5l0.6-10.5-0.6-5-0.6 5 0.6 10.5z"/>
</g>
</g>
</g>
</g>
<g id="g2882" fill="#008" transform="matrix(-2 3.4641 -3.4641 -2 450 300)">
<g id="g2884">
<g id="g2886">
<circle id="circle2888" transform="matrix(.99144 .13053 -.13053 .99144 17.35 2.2842)" cy="0" cx="0" r=".875"/>
<path id="path2890" d="m0 17.5l0.6-10.5-0.6-5-0.6 5 0.6 10.5z"/>
</g>
<g id="use2892" transform="rotate(15)">
<circle id="circle3052" transform="matrix(.99144 .13053 -.13053 .99144 17.35 2.2842)" cy="0" cx="0" r=".875"/>
<path id="path3054" d="m0 17.5l0.6-10.5-0.6-5-0.6 5 0.6 10.5z"/>
</g>
</g>
<g id="use2894" transform="rotate(30)">
<g id="g3058">
<circle id="circle3060" transform="matrix(.99144 .13053 -.13053 .99144 17.35 2.2842)" cy="0" cx="0" r=".875"/>
<path id="path3062" d="m0 17.5l0.6-10.5-0.6-5-0.6 5 0.6 10.5z"/>
</g>
<g id="g3064" transform="rotate(15)">
<circle id="circle3066" transform="matrix(.99144 .13053 -.13053 .99144 17.35 2.2842)" cy="0" cx="0" r=".875"/>
<path id="path3068" d="m0 17.5l0.6-10.5-0.6-5-0.6 5 0.6 10.5z"/>
</g>
</g>
</g>
<g id="use2896" fill="#008" transform="matrix(-4,0,0,-4,450,300)">
<g id="g3072">
<g id="g3074">
<circle id="circle3076" transform="matrix(.99144 .13053 -.13053 .99144 17.35 2.2842)" cy="0" cx="0" r=".875"/>
<path id="path3078" d="m0 17.5l0.6-10.5-0.6-5-0.6 5 0.6 10.5z"/>
</g>
<g id="g3080" transform="rotate(15)">
<circle id="circle3082" transform="matrix(.99144 .13053 -.13053 .99144 17.35 2.2842)" cy="0" cx="0" r=".875"/>
<path id="path3084" d="m0 17.5l0.6-10.5-0.6-5-0.6 5 0.6 10.5z"/>
</g>
</g>
<g id="g3086" transform="rotate(30)">
<g id="g3088">
<circle id="circle3090" transform="matrix(.99144 .13053 -.13053 .99144 17.35 2.2842)" cy="0" cx="0" r=".875"/>
<path id="path3092" d="m0 17.5l0.6-10.5-0.6-5-0.6 5 0.6 10.5z"/>
</g>
<g id="g3094" transform="rotate(15)">
<circle id="circle3096" transform="matrix(.99144 .13053 -.13053 .99144 17.35 2.2842)" cy="0" cx="0" r=".875"/>
<path id="path3098" d="m0 17.5l0.6-10.5-0.6-5-0.6 5 0.6 10.5z"/>
</g>
</g>
</g>
<g id="use34" fill="#008" transform="matrix(-2 -3.4641 3.4641 -2 450 300)">
<g id="g2864">
<g id="g2866">
<g id="g2868">
<circle id="circle2870" transform="matrix(.99144 .13053 -.13053 .99144 17.35 2.2842)" cy="0" cx="0" r=".875"/>
<path id="path2872" d="m0 17.5l0.6-10.5-0.6-5-0.6 5 0.6 10.5z"/>
</g>
<g id="use2874" transform="rotate(15)">
<circle id="circle2954" transform="matrix(.99144 .13053 -.13053 .99144 17.35 2.2842)" cy="0" cx="0" r=".875"/>
<path id="path2956" d="m0 17.5l0.6-10.5-0.6-5-0.6 5 0.6 10.5z"/>
</g>
</g>
<g id="use2876" transform="rotate(30)">
<g id="g2944">
<circle id="circle2946" transform="matrix(.99144 .13053 -.13053 .99144 17.35 2.2842)" cy="0" cx="0" r=".875"/>
<path id="path2948" d="m0 17.5l0.6-10.5-0.6-5-0.6 5 0.6 10.5z"/>
</g>
<g id="use2950" transform="rotate(15)">
<circle id="circle2960" transform="matrix(.99144 .13053 -.13053 .99144 17.35 2.2842)" cy="0" cx="0" r=".875"/>
<path id="path2962" d="m0 17.5l0.6-10.5-0.6-5-0.6 5 0.6 10.5z"/>
</g>
</g>
</g>
<g id="use2878" transform="rotate(60.001)">
<g id="g2966">
<g id="g2968">
<circle id="circle2970" transform="matrix(.99144 .13053 -.13053 .99144 17.35 2.2842)" cy="0" cx="0" r=".875"/>
<path id="path2972" d="m0 17.5l0.6-10.5-0.6-5-0.6 5 0.6 10.5z"/>
</g>
<g id="use2974" transform="rotate(15)">
<circle id="circle2980" transform="matrix(.99144 .13053 -.13053 .99144 17.35 2.2842)" cy="0" cx="0" r=".875"/>
<path id="path2982" d="m0 17.5l0.6-10.5-0.6-5-0.6 5 0.6 10.5z"/>
</g>
</g>
<g id="use2976" transform="rotate(30)">
<g id="g2986">
<circle id="circle2988" transform="matrix(.99144 .13053 -.13053 .99144 17.35 2.2842)" cy="0" cx="0" r=".875"/>
<path id="path2990" d="m0 17.5l0.6-10.5-0.6-5-0.6 5 0.6 10.5z"/>
</g>
<g id="use2992" transform="rotate(15)">
<circle id="circle2996" transform="matrix(.99144 .13053 -.13053 .99144 17.35 2.2842)" cy="0" cx="0" r=".875"/>
<path id="path2998" d="m0 17.5l0.6-10.5-0.6-5-0.6 5 0.6 10.5z"/>
</g>
</g>
</g>
</g>
</svg>
